<?xml version="1.0" standalone="no"?>
<!DOCTYPE svg PUBLIC "-//W3C//DTD SVG 20010904//EN"
 "http://www.w3.org/TR/2001/REC-SVG-20010904/DTD/svg10.dtd">
<svg version="1.0" xmlns="http://www.w3.org/2000/svg"
 width="128.000000pt" height="128.000000pt" viewBox="0 0 128.000000 128.000000"
 preserveAspectRatio="xMidYMid meet">
<metadata>
Created by potrace 1.14, written by Peter Selinger 2001-2017
</metadata>
<g transform="translate(0.000000,128.000000) scale(0.100000,-0.100000)"
fill="#000000" stroke="none">
<path d="M502 1225 c-215 -47 -400 -226 -456 -442 -23 -89 -21 -235 5 -319 50
-165 166 -303 312 -373 104 -49 168 -64 276 -63 167 2 301 59 422 181 127 127
186 281 176 456 -23 373 -372 639 -735 560z m326 -110 c-3 -3 -9 2 -12 12 -6
14 -5 15 5 6 7 -7 10 -15 7 -18z m-83 -8 c16 -13 15 -14 -13 -9 l-30 4 24 -49
c25 -52 30 -78 14 -88 -5 -3 -10 1 -10 9 0 11 -6 9 -25 -8 -14 -13 -25 -28
-25 -35 0 -15 -53 -14 -68 1 -6 6 -15 8 -19 4 -5 -4 6 -19 22 -32 l30 -24 -30
8 c-16 4 -43 7 -60 7 -25 0 -30 -4 -31 -25 -1 -14 -4 -35 -8 -48 l-8 -24 84 4
c103 4 110 7 125 40 6 14 23 34 38 44 22 15 29 15 51 3 42 -22 49 -47 23 -75
-12 -13 -21 -25 -18 -27 2 -2 35 -9 73 -15 50 -8 74 -8 83 0 18 14 17 20 -8
47 -26 28 -19 37 23 25 36 -11 79 -65 77 -98 -1 -18 -2 -18 -6 -3 -8 31 -56
18 -68 -18 -7 -21 -23 -36 -52 -50 -31 -15 -42 -26 -43 -43 0 -19 4 -22 21
-17 30 10 20 -16 -12 -32 -36 -19 -83 -16 -112 7 -14 11 -38 20 -53 20 -27 0
-27 -1 -8 -15 18 -14 17 -15 -8 -5 -18 6 -29 6 -33 -1 -4 -5 -23 -7 -43 -4
-29 5 -34 4 -22 -5 12 -9 9 -10 -15 -5 -16 4 -32 10 -35 15 -3 4 -19 11 -37
14 -26 6 -32 4 -37 -12 -4 -13 -19 -22 -41 -26 -37 -7 -110 8 -120 24 -3 6
-19 10 -35 10 -52 0 -103 94 -92 168 4 28 53 60 104 68 32 6 41 13 58 49 21
44 47 63 94 67 25 3 32 10 45 50 19 54 44 86 86 104 39 17 126 18 150 1z m265
-426 c-10 -20 -30 -29 -30 -14 0 10 33 44 37 39 3 -2 0 -14 -7 -25z m-456
-171 c14 0 28 -5 32 -11 3 -6 15 -9 25 -6 10 3 21 2 24 -3 2 -4 18 -10 35 -13
16 -4 30 -11 30 -17 0 -6 -4 -9 -9 -5 -5 3 -12 1 -16 -5 -3 -5 -24 -10 -45
-10 -52 0 -70 -8 -70 -32 0 -11 -5 -18 -12 -15 -7 2 -12 11 -10 21 2 12 -5 16
-28 16 l-30 0 0 66 0 67 25 -27 c13 -14 35 -26 49 -26z m-16 -148 c2 -12 7
-22 11 -22 3 0 7 -8 7 -17 1 -10 4 -49 7 -88 7 -70 7 -70 -8 -32 -8 21 -18 62
-21 90 -4 29 -7 57 -8 62 -1 6 -5 16 -10 24 -6 9 -5 12 5 9 8 -3 15 -14 17
-26z"/>
</g>
</svg>
